<svg height="512pt" viewBox="-68 0 512 512" width="512pt" xmlns="http://www.w3.org/2000/svg"><path d="m319.875 130c10.417969 0 19.097656 8 19.929688 18.390625l26.777343 332c.9375 11.582031-8.210937 21.609375-19.9375 21.609375h-316.640625c-11.742187 0-20.875-10.039062-19.941406-21.609375l26.78125-332c.832031-10.390625 9.511719-18.390625 19.929688-18.390625zm0 0" fill="#f79aaa"/><path d="m262.742188 326.390625c0 30.433594-30.75 50.761719-74.417969 88.609375-44.140625-38.25-74.421875-58.308594-74.421875-88.609375 0-21.902344 15.179687-40.390625 37.210937-40.390625 28.28125 0 37.210938 32.25 37.210938 32.25s8.929687-32.25 37.210937-32.25c22.027344 0 37.207032 18.488281 37.207032 40.390625zm0 0" fill="#FFF"/><path d="m272.742188 326.390625c0-28.257813-20.734376-50.390625-47.207032-50.390625-18.28125 0-30.042968 10.078125-37.210937 20.074219-7.167969-9.996094-18.929688-20.074219-37.210938-20.074219-26.472656 0-47.210937 22.132812-47.210937 50.390625 0 35.757813 32.875 57.175781 77.871094 96.167969 1.878906 1.628906 4.214843 2.441406 6.550781 2.441406 2.335937 0 4.667969-.8125 6.546875-2.441406 42.808594-37.101563 77.871094-60.105469 77.871094-96.167969zm-84.417969 75.417969c-39.300781-33.589844-64.421875-51.617188-64.421875-75.417969 0-17.324219 11.699218-30.390625 27.210937-30.390625 20.199219 0 27.292969 23.941406 27.574219 24.917969 1.199219 4.332031 5.140625 7.332031 9.636719 7.332031 4.496093 0 8.4375-3 9.636719-7.332031.070312-.25 7.136718-24.917969 27.574218-24.917969 15.511719 0 27.207032 13.066406 27.207032 30.390625 0 24.359375-27.53125 43.886719-64.417969 75.417969zm0 0"/><path d="m198.324219 502c0 5.523438-4.476563 10-10 10-5.523438 0-10-4.476562-10-10s4.476562-10 10-10c5.523437 0 10 4.476562 10 10zm0 0"/><path d="m30.003906 512h113.320313c5.523437 0 10-4.476562 10-10s-4.476563-10-10-10h-113.320313c-2.789062 0-5.464844-1.171875-7.355468-3.226562-1.886719-2.042969-2.839844-4.804688-2.617188-7.578126l26.78125-332.007812c.410156-5.152344 4.785156-9.1875 9.960938-9.1875h61.550781v40h-20c-5.523438 0-10 4.476562-10 10s4.476562 10 10 10h60c5.523437 0 10-4.476562 10-10s-4.476563-10-10-10h-20v-40h100v40h-20c-5.523438 0-10 4.476562-10 10s4.476562 10 10 10h60c5.523437 0 10-4.476562 10-10s-4.476563-10-10-10h-20v-40h61.550781c5.175781 0 9.550781 4.035156 9.960938 9.191406l26.78125 332.003906c.222656 2.773438-.730469 5.535157-2.632813 7.59375-1.878906 2.039063-4.550781 3.207032-7.339844 3.207032h-113.320312c-5.523438 0-10 4.480468-10 10 0 5.523437 4.476562 10 10 10h113.320312c8.367188 0 16.410157-3.523438 22.042969-9.648438 5.671875-6.136718 8.539062-14.433594 7.863281-22.761718l-26.777343-331.992188c-1.238282-15.472656-14.371094-27.59375-29.898438-27.59375h-61.550781v-50c0-38.597656-31.402344-70-70-70-38.597657 0-70 31.402344-70 70v50h-61.550781c-15.527344 0-28.660157 12.121094-29.898438 27.585938l-26.7773438 332c-.6757812 8.328124 2.1914058 16.625 7.8476558 22.742187 5.648438 6.148437 13.691407 9.671875 22.058594 9.671875zm108.320313-442c0-27.570312 22.429687-50 50-50 27.570312 0 50 22.429688 50 50v50h-100zm0 0"/></svg>