<?xml version="1.0" standalone="no"?>
<!DOCTYPE svg PUBLIC "-//W3C//DTD SVG 20010904//EN"
 "http://www.w3.org/TR/2001/REC-SVG-20010904/DTD/svg10.dtd">
<svg version="1.0" xmlns="http://www.w3.org/2000/svg"
 width="144.000000pt" height="144.000000pt" viewBox="0 0 144.000000 144.000000"
 preserveAspectRatio="xMidYMid meet">
<metadata>
Created by potrace 1.11, written by Peter Selinger 2001-2013
</metadata>
<g transform="translate(0.000000,144.000000) scale(0.100000,-0.100000)"
fill="#000000" stroke="none">
<path d="M0 720 l0 -720 720 0 720 0 0 720 0 720 -720 0 -720 0 0 -720z m818
426 c7 -4 16 -5 22 -1 12 8 89 -29 121 -59 14 -13 43 -45 64 -71 25 -30 45
-45 59 -44 12 0 26 1 33 0 21 -2 25 -39 7 -66 -14 -21 -14 -30 -4 -55 7 -17
16 -30 21 -30 5 0 9 -11 9 -24 0 -39 17 -74 55 -111 46 -46 71 -127 56 -183
-13 -45 -122 -161 -179 -188 -79 -37 -297 -45 -435 -14 -200 44 -376 157 -435
278 -24 51 -27 68 -27 162 1 94 4 111 28 162 15 31 45 72 67 92 51 46 166 104
255 128 98 28 256 41 283 24z"/>
<path d="M636 1099 c-38 -5 -83 -16 -99 -24 -17 -8 -34 -15 -39 -15 -17 0
-104 -44 -156 -79 -41 -28 -59 -50 -84 -98 -83 -167 -26 -328 152 -433 75 -44
216 -95 295 -106 48 -7 284 -3 319 5 49 12 75 34 28 25 -21 -4 -32 -3 -32 5 0
6 4 11 8 11 5 0 16 6 26 13 18 13 18 15 2 40 -10 14 -26 61 -37 104 -11 42
-24 82 -29 87 -27 27 17 86 66 86 12 0 29 3 38 6 30 12 16 20 -31 20 l-48 -1
2 43 c1 24 9 55 18 68 17 27 6 64 -20 64 -7 0 -20 3 -29 6 -10 4 -16 1 -16 -8
0 -8 -9 -23 -21 -34 -12 -10 -30 -36 -40 -56 -19 -38 -19 -38 1 -38 27 0 77
26 83 42 2 7 8 10 12 6 19 -18 -18 -67 -65 -87 -58 -25 -64 -25 -84 -5 -15 14
-16 14 -16 0 0 -19 -11 -21 -28 -4 -9 9 -12 8 -12 -5 0 -25 -15 -21 -35 9 -14
21 -68 54 -90 54 -13 0 -4 -102 10 -117 9 -8 18 -28 21 -43 l6 -27 66 34 c44
23 76 33 94 31 24 -4 28 -1 28 18 0 32 15 38 32 11 16 -25 53 -160 63 -229 6
-39 4 -48 -7 -48 -28 0 -46 36 -63 125 -10 50 -21 94 -25 98 -5 5 -36 -10 -71
-32 -35 -23 -67 -41 -71 -41 -19 0 -5 -21 25 -36 44 -22 117 -94 117 -116 0
-26 -10 -23 -65 25 -28 23 -62 50 -77 60 l-27 17 -3 -73 c-2 -55 -6 -72 -17
-72 -10 0 -15 12 -16 35 -2 48 -16 133 -23 144 -3 5 -7 35 -10 65 -2 31 -7 60
-12 66 -4 5 -11 33 -15 60 -10 77 -7 74 -67 61 l-53 -12 3 -71 c5 -108 -28
-105 -41 4 -3 21 -9 67 -13 102 l-7 63 -37 -5 c-42 -5 -65 4 -58 24 3 8 68 34
144 58 169 54 203 62 232 54 36 -9 26 -31 -18 -38 -38 -6 -57 -25 -25 -25 22
0 48 -45 40 -70 -4 -11 -18 -28 -31 -37 l-25 -16 39 -17 c21 -10 49 -30 62
-46 l23 -29 -7 27 c-14 60 -17 156 -6 163 14 9 31 -13 28 -35 0 -8 2 -22 6
-31 4 -9 9 -29 11 -45 2 -16 4 -31 4 -34 1 -3 12 17 26 45 14 27 30 54 35 59
16 16 12 26 -9 26 -30 0 -51 11 -51 26 0 20 18 17 23 -3 4 -16 5 -16 6 1 1 17
7 18 54 14 28 -3 58 -3 64 -1 20 7 -44 79 -96 110 -52 30 -139 38 -255 22z"/>
<path d="M570 949 c-8 -5 -27 -13 -42 -19 -22 -7 -28 -16 -28 -39 0 -38 7 -42
69 -34 49 6 51 7 50 37 0 23 -2 27 -8 13 -6 -18 -8 -18 -21 -2 -11 13 -11 21
-2 36 13 20 6 24 -18 8z"/>
<path d="M640 927 c0 -7 4 -18 9 -26 8 -12 12 -12 25 -2 19 16 14 27 -14 34
-12 3 -20 0 -20 -6z"/>
<path d="M1066 804 c-4 -10 -1 -14 6 -12 15 5 23 28 10 28 -5 0 -13 -7 -16
-16z"/>
<path d="M1047 663 c-3 -5 3 -42 14 -83 10 -41 19 -85 19 -97 0 -40 19 -25 35
29 16 53 20 115 9 142 -6 16 -68 23 -77 9z"/>
<path d="M1178 562 c-3 -26 -12 -63 -21 -82 -22 -44 -17 -47 19 -9 24 25 29
38 27 76 -2 65 -19 75 -25 15z"/>
</g>
</svg>
